<mxfile host="app.diagrams.net" agent="Mozilla/5.0 (Windows NT 10.0; Win64; x64) AppleWebKit/537.36 (KHTML, like Gecko) Chrome/135.0.0.0 Safari/537.36" version="26.2.9">
  <diagram name="Page-1" id="f5XXZuFgG5snbz5ynQcJ">
    <mxGraphModel dx="1044" dy="927" grid="0" gridSize="10" guides="1" tooltips="1" connect="1" arrows="1" fold="1" page="0" pageScale="1" pageWidth="827" pageHeight="1169" math="0" shadow="0">
      <root>
        <mxCell id="0" />
        <mxCell id="1" parent="0" />
        <mxCell id="LCZOTKGPwq3D6_NbJmJK-6" value="" style="edgeStyle=none;curved=1;rounded=0;orthogonalLoop=1;jettySize=auto;html=1;fontSize=12;startSize=8;endSize=8;" parent="1" source="LCZOTKGPwq3D6_NbJmJK-1" target="LCZOTKGPwq3D6_NbJmJK-5" edge="1">
          <mxGeometry relative="1" as="geometry" />
        </mxCell>
        <mxCell id="LCZOTKGPwq3D6_NbJmJK-1" value="&lt;div&gt;Utilisateur final&lt;/div&gt;" style="shape=umlActor;verticalLabelPosition=bottom;verticalAlign=top;html=1;outlineConnect=0;" parent="1" vertex="1">
          <mxGeometry x="88" y="245" width="30" height="59" as="geometry" />
        </mxCell>
        <mxCell id="LCZOTKGPwq3D6_NbJmJK-5" value="Utiliser l&#39;API openAI" style="rounded=1;whiteSpace=wrap;html=1;verticalAlign=middle;" parent="1" vertex="1">
          <mxGeometry x="239" y="234" width="120" height="60" as="geometry" />
        </mxCell>
        <mxCell id="LCZOTKGPwq3D6_NbJmJK-7" value="" style="edgeStyle=none;curved=1;rounded=0;orthogonalLoop=1;jettySize=auto;html=1;fontSize=12;startSize=8;endSize=8;" parent="1" source="LCZOTKGPwq3D6_NbJmJK-8" target="LCZOTKGPwq3D6_NbJmJK-9" edge="1">
          <mxGeometry relative="1" as="geometry" />
        </mxCell>
        <mxCell id="LCZOTKGPwq3D6_NbJmJK-11" value="" style="edgeStyle=none;curved=1;rounded=0;orthogonalLoop=1;jettySize=auto;html=1;fontSize=12;startSize=8;endSize=8;" parent="1" source="LCZOTKGPwq3D6_NbJmJK-8" target="LCZOTKGPwq3D6_NbJmJK-10" edge="1">
          <mxGeometry relative="1" as="geometry" />
        </mxCell>
        <mxCell id="LCZOTKGPwq3D6_NbJmJK-13" value="" style="edgeStyle=none;curved=1;rounded=0;orthogonalLoop=1;jettySize=auto;html=1;fontSize=12;startSize=8;endSize=8;" parent="1" source="LCZOTKGPwq3D6_NbJmJK-8" target="LCZOTKGPwq3D6_NbJmJK-12" edge="1">
          <mxGeometry relative="1" as="geometry" />
        </mxCell>
        <mxCell id="LCZOTKGPwq3D6_NbJmJK-8" value="&lt;div&gt;Développeur&lt;/div&gt;" style="shape=umlActor;verticalLabelPosition=bottom;verticalAlign=top;html=1;outlineConnect=0;" parent="1" vertex="1">
          <mxGeometry x="88" y="68" width="30" height="59" as="geometry" />
        </mxCell>
        <mxCell id="LCZOTKGPwq3D6_NbJmJK-9" value="Envoyer un Prompt à GPT 4&amp;nbsp;" style="rounded=1;whiteSpace=wrap;html=1;verticalAlign=middle;" parent="1" vertex="1">
          <mxGeometry x="239" y="152" width="120" height="60" as="geometry" />
        </mxCell>
        <mxCell id="LCZOTKGPwq3D6_NbJmJK-10" value="générer une image" style="rounded=1;whiteSpace=wrap;html=1;verticalAlign=middle;" parent="1" vertex="1">
          <mxGeometry x="236" y="78" width="120" height="60" as="geometry" />
        </mxCell>
        <mxCell id="LCZOTKGPwq3D6_NbJmJK-12" value="transcrire un audio" style="rounded=1;whiteSpace=wrap;html=1;verticalAlign=middle;" parent="1" vertex="1">
          <mxGeometry x="239" y="8" width="120" height="60" as="geometry" />
        </mxCell>
        <mxCell id="LCZOTKGPwq3D6_NbJmJK-14" value="" style="edgeStyle=none;curved=1;rounded=0;orthogonalLoop=1;jettySize=auto;html=1;fontSize=12;startSize=8;endSize=8;" parent="1" source="LCZOTKGPwq3D6_NbJmJK-15" target="LCZOTKGPwq3D6_NbJmJK-16" edge="1">
          <mxGeometry relative="1" as="geometry" />
        </mxCell>
        <mxCell id="LCZOTKGPwq3D6_NbJmJK-15" value="&lt;div&gt;Utilisateur Entreprise&lt;/div&gt;" style="shape=umlActor;verticalLabelPosition=bottom;verticalAlign=top;html=1;outlineConnect=0;" parent="1" vertex="1">
          <mxGeometry x="88" y="-89" width="30" height="59" as="geometry" />
        </mxCell>
        <mxCell id="LCZOTKGPwq3D6_NbJmJK-16" value="Collecter des données" style="rounded=1;whiteSpace=wrap;html=1;verticalAlign=middle;" parent="1" vertex="1">
          <mxGeometry x="234" y="-62" width="120" height="60" as="geometry" />
        </mxCell>
      </root>
    </mxGraphModel>
  </diagram>
</mxfile>
